<svg width="18" height="18" viewBox="0 0 18 18" fill="none" xmlns="http://www.w3.org/2000/svg">
<path d="M12.7065 12.4493C12.9457 12.4493 13.1865 12.3577 13.3695 12.1747L13.905 11.6392C14.4885 11.055 14.6685 10.182 14.361 9.41474L13.5382 7.3575C13.4452 7.1265 13.5142 6.86627 13.7092 6.71027L15.5655 5.22524C16.0065 4.87274 16.2765 4.34699 16.308 3.78374C16.3395 3.22049 16.1287 2.66851 15.7297 2.26951C15.33 1.87051 14.787 1.65826 14.214 1.69126C13.6507 1.72276 13.1265 1.9935 12.774 2.43375L11.289 4.28998C11.1353 4.48123 10.8712 4.55177 10.6417 4.46027L8.58449 3.63749C7.81799 3.33074 6.94422 3.50999 6.36072 4.09424L5.82523 4.62974C5.56423 4.89074 5.49824 5.26727 5.60999 5.59502L2.18175 9.02326C1.863 9.34201 1.6875 9.76576 1.6875 10.2165C1.6875 10.6673 1.863 11.091 2.18175 11.4098L6.59024 15.8183C6.90899 16.1378 7.33273 16.3132 7.78423 16.3132C8.23498 16.3132 8.65873 16.1377 8.97748 15.819L12.4058 12.3908C12.5025 12.4238 12.6037 12.4493 12.7065 12.4493ZM8.166 4.68151L10.2232 5.50425C10.9185 5.7825 11.6992 5.57626 12.1672 4.99201L13.6523 3.13578C13.8068 2.94228 14.0287 2.82827 14.2762 2.81402C14.5192 2.80052 14.7577 2.88899 14.934 3.06524C15.1087 3.24074 15.1987 3.47399 15.1845 3.72149C15.1702 3.96974 15.0562 4.19177 14.862 4.34702L13.0058 5.83201C12.4208 6.30001 12.2152 7.08224 12.4935 7.77599L13.3163 9.8325C13.4558 10.1812 13.374 10.578 13.1093 10.8435L12.7462 11.2073C12.6885 11.1563 12.6247 11.1188 12.555 11.0955L6.90298 5.4435C6.87973 5.3745 6.84224 5.31078 6.79124 5.25303L7.15498 4.88924C7.42048 4.62374 7.8165 4.54276 8.166 4.68151ZM8.18024 15.0225C7.96799 15.2348 7.59751 15.2355 7.38451 15.0225L4.45276 12.0907L5.64601 10.8975C5.86576 10.6778 5.86576 10.3215 5.64601 10.1018C5.42626 9.882 5.06998 9.882 4.85023 10.1018L3.65698 11.295L2.97523 10.6133C2.86873 10.5068 2.81026 10.3657 2.81026 10.2157C2.81026 10.0657 2.86873 9.92403 2.97523 9.81753L6.33073 6.46203L11.535 11.667L8.18024 15.0225ZM16.311 15.75C16.311 16.0605 16.059 16.3125 15.7485 16.3125H11.9985C11.688 16.3125 11.436 16.0605 11.436 15.75C11.436 15.4395 11.688 15.1875 11.9985 15.1875H15.7485C16.059 15.1875 16.311 15.4395 16.311 15.75Z" fill="#282828"/>
</svg>
