<svg width="18" height="18" viewBox="0 0 18 18" fill="none" xmlns="http://www.w3.org/2000/svg">
<path d="M15.9286 11.3828L14.1181 9.57225C14.0461 9.50025 13.9951 9.41026 13.9703 9.31126L12.9031 5.043C12.6316 3.95775 11.7436 3.1365 10.6396 2.95125L3.19955 1.70325C2.7938 1.64025 2.39856 1.76849 2.10231 2.04824C2.09181 2.05724 2.07905 2.06026 2.0693 2.07001C2.05955 2.07976 2.0558 2.09324 2.0468 2.10374C1.7678 2.39999 1.64031 2.79601 1.70331 3.20776L2.95055 10.6403C3.1358 11.7435 3.95705 12.6315 5.0423 12.903L9.31055 13.9703C9.40955 13.995 9.49955 14.046 9.5723 14.118L11.3821 15.9277C11.6303 16.176 11.9596 16.3125 12.3098 16.3125C12.6608 16.3125 12.9901 16.176 13.2376 15.9277L15.9271 13.2383C16.4408 12.7268 16.4408 11.8943 15.9286 11.3828ZM4.06205 10.4535L2.93331 3.72675L6.4268 7.22026C6.40355 7.31026 6.38781 7.4025 6.38781 7.5C6.38781 8.121 6.8948 8.625 7.51655 8.625C8.1383 8.625 8.64155 8.121 8.64155 7.5C8.64155 6.879 8.1383 6.375 7.51655 6.375H7.50906C7.40706 6.375 7.30955 6.39301 7.2158 6.41851L3.7298 2.9325L10.4558 4.06126C11.1181 4.17226 11.6506 4.66501 11.8141 5.31601L12.8798 9.57749L9.57981 12.8775L5.3183 11.8125C4.6658 11.649 4.17305 11.1157 4.06205 10.4535ZM15.1336 12.4433L12.4441 15.1328C12.3488 15.228 12.2753 15.228 12.1793 15.1328L10.5466 13.5L13.5008 10.5458L15.1336 12.1785C15.2063 12.2513 15.2063 12.3698 15.1336 12.4433Z" fill="#282828"/>
</svg>
