<svg width="18" height="18" viewBox="0 0 18 18" fill="none" xmlns="http://www.w3.org/2000/svg">
<path d="M16.1475 15.3525L13.2668 12.4717C14.2298 11.3295 14.8125 9.85725 14.8125 8.25C14.8125 4.63125 11.8687 1.6875 8.25 1.6875C4.63125 1.6875 1.6875 4.63125 1.6875 8.25C1.6875 11.8687 4.63125 14.8125 8.25 14.8125C9.85725 14.8125 11.3295 14.2297 12.4718 13.2667L15.3525 16.1475C15.462 16.257 15.606 16.3125 15.75 16.3125C15.894 16.3125 16.038 16.2577 16.1475 16.1475C16.3673 15.9285 16.3673 15.5723 16.1475 15.3525ZM2.8125 8.25C2.8125 5.2515 5.2515 2.8125 8.25 2.8125C11.2485 2.8125 13.6875 5.2515 13.6875 8.25C13.6875 11.2485 11.2485 13.6875 8.25 13.6875C5.2515 13.6875 2.8125 11.2485 2.8125 8.25ZM10.5 6.5625H6C5.6895 6.5625 5.4375 6.8145 5.4375 7.125C5.4375 7.4355 5.6895 7.6875 6 7.6875H10.5C10.8105 7.6875 11.0625 7.4355 11.0625 7.125C11.0625 6.8145 10.8105 6.5625 10.5 6.5625ZM9 8.8125H6C5.6895 8.8125 5.4375 9.0645 5.4375 9.375C5.4375 9.6855 5.6895 9.9375 6 9.9375H9C9.3105 9.9375 9.5625 9.6855 9.5625 9.375C9.5625 9.0645 9.3105 8.8125 9 8.8125Z" fill="#282828"/>
</svg>
