<svg width="18" height="18" viewBox="0 0 18 18" fill="none" xmlns="http://www.w3.org/2000/svg">
<path d="M12.375 17.0625C12.231 17.0625 12.087 17.0078 11.9775 16.8975L10.1025 15.0225C9.88273 14.8028 9.88273 14.4465 10.1025 14.2267L11.9775 12.3517C12.1972 12.132 12.5535 12.132 12.7733 12.3517C12.993 12.5715 12.993 12.9278 12.7733 13.1475L11.2958 14.625L12.7733 16.1025C12.993 16.3222 12.993 16.6785 12.7733 16.8983C12.663 17.0078 12.519 17.0625 12.375 17.0625ZM15.0225 16.8975L16.8975 15.0225C17.1173 14.8028 17.1173 14.4465 16.8975 14.2267L15.0225 12.3517C14.8028 12.132 14.4465 12.132 14.2267 12.3517C14.007 12.5715 14.007 12.9278 14.2267 13.1475L15.7042 14.625L14.2267 16.1025C14.007 16.3222 14.007 16.6785 14.2267 16.8983C14.3362 17.0078 14.4803 17.0632 14.6243 17.0632C14.7683 17.0632 14.913 17.0078 15.0225 16.8975ZM10.6943 4.875C10.6943 3.11775 9.26477 1.6875 7.50677 1.6875C5.74877 1.6875 4.31927 3.11775 4.31927 4.875C4.31927 6.63225 5.74877 8.0625 7.50677 8.0625C9.26477 8.0625 10.6943 6.63225 10.6943 4.875ZM9.56927 4.875C9.56927 6.01275 8.64452 6.9375 7.50677 6.9375C6.36902 6.9375 5.44427 6.01275 5.44427 4.875C5.44427 3.73725 6.36902 2.8125 7.50677 2.8125C8.64452 2.8125 9.56927 3.73725 9.56927 4.875ZM8.8125 15.75C8.8125 15.4395 8.5605 15.1875 8.25 15.1875H4.5C3.31725 15.1875 2.8125 14.6873 2.8125 13.515C2.8125 12.7643 3.04275 10.3125 6 10.3125H9C9.86925 10.3125 10.5743 10.5232 11.0933 10.9387C11.3363 11.133 11.6895 11.0948 11.8845 10.851C12.0787 10.608 12.039 10.2547 11.7968 10.0605C11.0723 9.48071 10.1317 9.18677 9 9.18677H6C2.817 9.18677 1.6875 11.5178 1.6875 13.5143C1.6875 15.318 2.6865 16.3118 4.5 16.3118H8.25C8.5605 16.3125 8.8125 16.0605 8.8125 15.75Z" fill="#282828"/>
</svg>
