<svg width="18" height="18" viewBox="0 0 18 18" fill="none" xmlns="http://www.w3.org/2000/svg">
<path d="M12.06 7.79178C12.147 7.49403 12.4582 7.323 12.7582 7.41C12.8265 7.43025 12.9067 7.44003 13.005 7.44003C13.6582 7.44003 14.19 6.90522 14.19 6.24747C14.19 5.70972 13.827 5.23952 13.3057 5.10452C13.005 5.02652 12.8242 4.71899 12.903 4.41824C12.9802 4.11749 13.2855 3.93902 13.5885 4.01477C14.6048 4.27877 15.315 5.19673 15.315 6.24673C15.315 7.52473 14.2785 8.56421 13.005 8.56421C12.7987 8.56421 12.6142 8.53948 12.4417 8.48923C12.1432 8.40223 11.973 8.09028 12.06 7.79178ZM14.1727 8.94827C14.1652 8.94827 14.1585 8.94827 14.1525 8.94827C13.851 8.94827 13.6012 9.18679 13.5907 9.49054C13.5787 9.80104 13.8218 10.0613 14.1323 10.0725C15.807 10.1333 15.9375 11.5688 15.9375 12.0075V13.5C15.9375 13.8105 16.1895 14.0625 16.5 14.0625C16.8105 14.0625 17.0625 13.8105 17.0625 13.5V12.0075C17.0625 10.644 16.3057 9.02477 14.1727 8.94827ZM5.00253 8.56503C5.20878 8.56503 5.39327 8.54021 5.56577 8.48996C5.86352 8.40221 6.03454 8.09028 5.94754 7.79178C5.86054 7.49403 5.54852 7.323 5.24927 7.41C5.18102 7.43025 5.10078 7.44003 5.00253 7.44003C4.34928 7.44003 3.81747 6.90522 3.81747 6.24747C3.81747 5.70522 4.18347 5.23202 4.70847 5.09702C5.00847 5.01977 5.19076 4.71304 5.11276 4.41229C5.03476 4.11079 4.72722 3.9285 4.42722 4.008C3.40647 4.27125 2.69321 5.19222 2.69321 6.24747C2.69246 7.52547 3.72903 8.56503 5.00253 8.56503ZM4.39426 9.48752C4.38151 9.17702 4.12647 8.93177 3.80997 8.94827C1.68972 9.03377 0.9375 10.65 0.9375 12.0075V13.5C0.9375 13.8105 1.1895 14.0625 1.5 14.0625C1.8105 14.0625 2.0625 13.8105 2.0625 13.5V12.0075C2.0625 11.4473 2.23724 10.137 3.85574 10.0725C4.16624 10.0598 4.40701 9.79802 4.39426 9.48752ZM6.19354 5.25C6.19354 3.699 7.45579 2.4375 9.00604 2.4375C10.5563 2.4375 11.8185 3.699 11.8185 5.25C11.8185 6.801 10.5563 8.0625 9.00604 8.0625C7.45579 8.0625 6.19354 6.801 6.19354 5.25ZM7.31854 5.25C7.31854 6.18075 8.07604 6.9375 9.00604 6.9375C9.93604 6.9375 10.6935 6.18075 10.6935 5.25C10.6935 4.31925 9.93604 3.5625 9.00604 3.5625C8.07604 3.5625 7.31854 4.31925 7.31854 5.25ZM10.3327 9.10428H7.66653C4.79028 9.10428 3.77023 11.2095 3.77023 13.0125V15C3.77023 15.3105 4.02223 15.5625 4.33273 15.5625C4.64323 15.5625 4.89523 15.3105 4.89523 15V13.0125C4.89523 12.3592 5.09553 10.2293 7.66653 10.2293H10.3327C12.9045 10.2293 13.104 12.3592 13.104 13.0125V15C13.104 15.3105 13.356 15.5625 13.6665 15.5625C13.977 15.5625 14.229 15.3105 14.229 15V13.0125C14.2298 11.2095 13.209 9.10428 10.3327 9.10428Z" fill="#282828"/>
</svg>
