<svg width="32" height="32" viewBox="0 0 32 32" fill="none" xmlns="http://www.w3.org/2000/svg">
<path d="M14.6774 14.3333C11.5521 14.3333 9.01074 11.7907 9.01074 8.66667C9.01074 5.54267 11.5521 3 14.6774 3C17.8027 3 20.3441 5.54267 20.3441 8.66667C20.3441 11.7907 17.8027 14.3333 14.6774 14.3333ZM14.6774 5C12.6547 5 11.0107 6.644 11.0107 8.66667C11.0107 10.6893 12.6547 12.3333 14.6774 12.3333C16.7001 12.3333 18.3441 10.6893 18.3441 8.66667C18.3441 6.644 16.6987 5 14.6774 5ZM19.6654 28C19.6654 27.448 19.2174 27 18.6654 27H9.33203C7.22936 27 6.33203 26.1107 6.33203 24.0267C6.33203 22.692 6.74136 18.3333 11.9987 18.3333H17.332C19.5134 18.3333 21.0961 19.076 22.0374 20.54C22.3361 21.0054 22.9546 21.14 23.4186 20.8413C23.884 20.5426 24.0174 19.924 23.7201 19.46C22.8027 18.0333 20.952 16.3333 17.332 16.3333H11.9987C6.34003 16.3333 4.33203 20.4774 4.33203 24.0267C4.33203 27.2334 6.10803 29 9.33203 29H18.6654C19.2174 29 19.6654 28.552 19.6654 28ZM25.1494 28.2627L28.7054 24.7067C29.0961 24.316 29.0961 23.6827 28.7054 23.292C28.3147 22.9013 27.6814 22.9013 27.2907 23.292L24.4414 26.14L23.3708 25.0693C22.9801 24.6787 22.3467 24.6787 21.9561 25.0693C21.5654 25.46 21.5654 26.0934 21.9561 26.4841L23.7334 28.2614C23.9281 28.4561 24.1841 28.5547 24.4401 28.5547C24.6961 28.5547 24.9547 28.4574 25.1494 28.2627Z" fill="#02905E"/>
</svg>
