<svg width="17" height="17" viewBox="0 0 17 17" fill="none" xmlns="http://www.w3.org/2000/svg">
<path d="M8.0625 0C3.615 0 0 3.615 0 8.0625C0 12.51 3.615 16.125 8.0625 16.125C12.51 16.125 16.125 12.51 16.125 8.0625C16.125 3.615 12.51 0 8.0625 0ZM8.0625 1.125C9.72 1.125 11.2425 1.71 12.435 2.685C12.0375 2.9175 11.79 3.3675 11.79 3.84C11.79 4.455 12.1425 4.9875 12.5325 5.61C12.8175 6.105 13.1475 6.75 13.1475 7.6875C13.1475 8.3325 12.9 9.0825 12.5775 10.125L11.82 12.6375L9.0975 4.52999C9.5625 4.50749 9.96749 4.4625 9.96749 4.4625C10.38 4.4175 10.32 3.825 9.915 3.84C9.915 3.84 8.7 3.945 7.92 3.945C7.14 3.945 5.9325 3.84 5.9325 3.84C5.5275 3.825 5.4825 4.4475 5.8875 4.47001C6.15 4.50001 6.42 4.52249 6.675 4.52999L7.8525 7.7475L6.2025 12.69L3.45 4.52999C3.915 4.515 4.32 4.4625 4.32 4.4625C4.7325 4.4175 4.68 3.825 4.275 3.84C4.275 3.84 3.2925 3.9225 2.52 3.9375C3.7875 2.2425 5.805 1.1325 8.0775 1.1325L8.0625 1.125ZM1.125 8.0625C1.125 7.29 1.26 6.5475 1.4925 5.85L4.4625 13.98C2.4675 12.7575 1.125 10.5675 1.125 8.0625ZM6.13499 14.7225L8.19749 8.7225L10.35 14.6025C9.63 14.85 8.865 15 8.0625 15C7.395 15 6.74999 14.9025 6.13499 14.7225ZM12.1725 13.635L14.1525 7.92C14.4225 7.2825 14.58 6.6075 14.655 5.925C14.8725 6.6 14.9925 7.3125 14.9925 8.0625C14.9925 10.35 13.875 12.3675 12.1725 13.635Z" fill="#282828"/>
</svg>
