<svg width="121" height="60" viewBox="0 0 121 60" fill="none" xmlns="http://www.w3.org/2000/svg">
<path d="M118.359 6.20703V36.9398V60.0008H0.359375V39.0581L27.1094 27.7735L57.6086 39.0581L70.0297 27.7735L95.9069 24.8277L104.188 17.5863L118.359 6.20703Z" fill="url(#paint0_linear_13021_32122)"/>
<path d="M119.814 4.17025C120.385 4.2252 120.803 4.73219 120.748 5.30264L119.852 14.5985C119.797 15.169 119.29 15.5869 118.72 15.5319C118.149 15.477 117.731 14.97 117.786 14.3995L118.582 6.13649L110.319 5.3404C109.749 5.28545 109.331 4.77846 109.386 4.20802C109.441 3.63757 109.948 3.21969 110.518 3.27465L119.814 4.17025ZM95.9078 24.826L96.5678 25.6267L96.3306 25.8222L96.0251 25.857L95.9078 24.826ZM70.0306 27.7703L69.3269 27.0077L69.5763 26.7776L69.9133 26.7393L70.0306 27.7703ZM57.6096 39.2317L58.3133 39.9943L57.8432 40.428L57.2445 40.203L57.6096 39.2317ZM27.112 27.7703L26.6944 26.8203L27.0814 26.6502L27.477 26.7989L27.112 27.7703ZM1.45469 40.1816C0.930054 40.4122 0.317802 40.1739 0.0871964 39.6492C-0.143417 39.1246 0.0949402 38.5124 0.619583 38.2817L1.03713 39.2317L1.45469 40.1816ZM119.715 5.20312L120.375 6.00385L96.5678 25.6267L95.9078 24.826L95.2478 24.0252L119.055 4.4024L119.715 5.20312ZM95.9078 24.826L96.0251 25.857L70.1479 28.8013L70.0306 27.7703L69.9133 26.7393L95.7905 23.795L95.9078 24.826ZM70.0306 27.7703L70.7343 28.5329L58.3133 39.9943L57.6096 39.2317L56.9059 38.4691L69.3269 27.0077L70.0306 27.7703ZM57.6096 39.2317L57.2445 40.203L26.747 28.7416L27.112 27.7703L27.477 26.7989L57.9746 38.2604L57.6096 39.2317ZM27.112 27.7703L27.5295 28.7202L1.45469 40.1816L1.03713 39.2317L0.619583 38.2817L26.6944 26.8203L27.112 27.7703Z" fill="#02905E"/>
<defs>
<linearGradient id="paint0_linear_13021_32122" x1="59.3597" y1="-16.3389" x2="59.3597" y2="60.0009" gradientUnits="userSpaceOnUse">
<stop stop-color="#009E00" stop-opacity="0.3"/>
<stop offset="1" stop-color="#009E00" stop-opacity="0.05"/>
</linearGradient>
</defs>
</svg>
